HIERARCHY
ROOT Pelvis
{
	OFFSET 0.000000 0.000000 0.000000
	CHANNELS 6 Xposition Yposition Zposition Xrotation Yrotation Zrotation
	JOINT LeftUpLeg_virtual
	{
		OFFSET 0.000000 0.000000 0.000000
		CHANNELS 3 Xrotation Yrotation Zrotation
		JOINT LeftUpLeg
		{
			OFFSET 18.735201 -5.666702 -4.541200
			CHANNELS 3 Xrotation Yrotation Zrotation
			JOINT LeftLeg
			{
				OFFSET -0.021200 -31.938179 0.493100
				CHANNELS 3 Xrotation Yrotation Zrotation
				JOINT LeftFoot
				{
					OFFSET 0.021200 -31.938179 -4.336299
					CHANNELS 3 Xrotation Yrotation Zrotation
					JOINT LeftToeBase
					{
						OFFSET 0.943001 -26.722000 15.023500
						CHANNELS 3 Xrotation Yrotation Zrotation
						End Site
						{
							OFFSET 0 0 0
						}
					}
				}
			}
		}
	}
	JOINT RightUpLeg_virtual
	{
		OFFSET 0.000000 0.000000 0.000000
		CHANNELS 3 Xrotation Yrotation Zrotation
		JOINT RightUpLeg
		{
			OFFSET -18.735201 -5.666702 -4.541200
			CHANNELS 3 Xrotation Yrotation Zrotation
			JOINT RightLeg
			{
				OFFSET 0.018946 -31.938133 0.493100
				CHANNELS 3 Xrotation Yrotation Zrotation
				JOINT RightFoot
				{
					OFFSET -0.018946 -31.938126 -4.336299
					CHANNELS 3 Xrotation Yrotation Zrotation
					JOINT RightToeBase
					{
						OFFSET -0.943001 -26.722004 15.023500
						CHANNELS 3 Xrotation Yrotation Zrotation
						End Site
						{
							OFFSET 0 0 0
						}
					}
				}
			}
		}
	}
	JOINT Hips_virtual
	{
		OFFSET 0.000000 0.000000 0.000000
		CHANNELS 3 Xrotation Yrotation Zrotation
		JOINT Hips
		{
			OFFSET -0.000000 -0.000000 -0.000000
			CHANNELS 3 Xrotation Yrotation Zrotation
			JOINT Spine
			{
				OFFSET 0.000000 10.199997 -0.299500
				CHANNELS 3 Xrotation Yrotation Zrotation
				JOINT Spine1
				{
					OFFSET 0.000000 11.900002 -1.516600
					CHANNELS 3 Xrotation Yrotation Zrotation
					JOINT Spine2
					{
						OFFSET 0.000000 13.600006 -2.842500
						CHANNELS 3 Xrotation Yrotation Zrotation
						JOINT Neck_virtual
						{
							OFFSET 0.000000 0.000000 0.000000
							CHANNELS 3 Xrotation Yrotation Zrotation
							JOINT Neck
							{
								OFFSET 0.000000 9.624100 -2.890100
								CHANNELS 3 Xrotation Yrotation Zrotation
								JOINT Head
								{
									OFFSET 0.000000 14.068802 -1.351900
									CHANNELS 3 Xrotation Yrotation Zrotation
									End Site
									{
										OFFSET 0 0 0
									}
								}
							}
						}
						JOINT LeftShoulder_virtual
						{
							OFFSET 0.000000 0.000000 0.000000
							CHANNELS 3 Xrotation Yrotation Zrotation
							JOINT LeftShoulder
							{
								OFFSET 15.263000 10.923401 -0.547700
								CHANNELS 3 Xrotation Yrotation Zrotation
								JOINT LeftArm
								{
									OFFSET 25.438599 -2.830597 -13.032500
									CHANNELS 3 Xrotation Yrotation Zrotation
									JOINT LeftForeArm
									{
										OFFSET 29.960503 0.000000 0.000000
										CHANNELS 3 Xrotation Yrotation Zrotation
										JOINT LeftHand
										{
											OFFSET 27.849251 0.000000 0.000000
											CHANNELS 3 Xrotation Yrotation Zrotation
											End Site
											{
												OFFSET 0 0 0
											}
										}
									}
								}
							}
						}
						JOINT RightShoulder_virtual
						{
							OFFSET 0.000000 0.000000 0.000000
							CHANNELS 3 Xrotation Yrotation Zrotation
							JOINT RightShoulder
							{
								OFFSET -15.263000 10.923401 -0.547700
								CHANNELS 3 Xrotation Yrotation Zrotation
								JOINT RightArm
								{
									OFFSET -25.438599 -2.830597 -13.032500
									CHANNELS 3 Xrotation Yrotation Zrotation
									JOINT RightForeArm
									{
										OFFSET -29.960503 0.000000 0.000000
										CHANNELS 3 Xrotation Yrotation Zrotation
										JOINT RightHand
										{
											OFFSET -27.849251 0.000000 0.000000
											CHANNELS 3 Xrotation Yrotation Zrotation
											End Site
											{
												OFFSET 0 0 0
											}
										}
									}
								}
							}
						}
					}
				}
			}
		}
	}
}
MOTION
Frames: 12
Frame Time: 0.03333333
-2.629495 80.373825 2.605095 0.000000 0.000000 0.000000 -5.290073 -44.954048 0.012939 -36.911001 3.269460 21.343822 62.508423 -8.152256 4.188304 -22.911070 -6.711861 -18.589796 0.000000 0.000000 0.000000 -5.290073 -44.954048 0.012939 -20.977328 -8.980649 -32.624846 63.053506 -6.514585 -7.419045 -31.031855 -9.960351 27.205934 0.000000 0.000000 0.000000 -5.290073 -44.954048 0.012939 0.000000 0.000001 0.000000 9.462109 7.035653 -1.694631 2.187715 0.989907 -0.915632 0.000000 0.000000 0.000000 2.202829 0.982775 -0.894152 2.650096 3.452583 -0.064204 0.000000 0.000000 0.000000 2.202829 0.982775 -0.894152 1.117182 3.546344 -8.633310 -53.487020 4.935514 -51.502990 -179.999308 -73.641952 -179.999295 0.000000 0.000000 0.000000 2.202829 0.982775 -0.894152 3.036129 13.027183 -5.371406 -48.713722 27.172835 83.457091 -179.999445 74.011698 179.999459 0.000000 0.000000 0.000000 
-2.683264 80.147018 2.149208 0.000000 0.000000 0.000000 -5.525757 -45.505883 -0.151723 -38.238503 2.454203 21.526562 63.947981 -7.891515 4.323566 -20.783998 -6.682648 -18.910567 0.000000 0.000000 0.000000 -5.525757 -45.505883 -0.151723 -21.883631 -8.768849 -32.707276 64.040127 -5.682573 -7.724608 -31.452734 -9.992881 27.234444 0.000000 0.000000 0.000000 -5.525757 -45.505883 -0.151723 0.000000 -0.000001 0.000001 9.510693 7.186069 -1.409409 2.197573 1.027106 -0.862103 0.000000 0.000000 0.000000 2.211432 1.021842 -0.841509 2.646255 3.457978 -0.138232 0.000000 0.000000 0.000000 2.211432 1.021842 -0.841509 1.116597 3.696294 -8.750945 -52.843019 5.031847 -51.853434 179.999363 -73.327606 179.999377 0.000000 0.000000 0.000000 2.211432 1.021842 -0.841509 3.025578 13.532536 -5.623952 -48.207748 26.760171 82.252970 179.999500 73.525730 -179.999527 0.000000 0.000000 0.000000 
-2.635508 79.898064 1.858765 0.000000 0.000000 0.000000 -5.874010 -46.124100 -0.423907 -39.643842 1.585640 21.605420 65.789379 -7.568557 4.351575 -18.493700 -6.789247 -19.011997 0.000000 0.000000 0.000000 -5.874010 -46.124100 -0.423907 -22.895650 -8.602310 -32.847230 65.083992 -4.741198 -8.188957 -31.839938 -9.968460 27.034572 0.000000 0.000000 0.000000 -5.874010 -46.124100 -0.423907 0.000000 -0.000001 0.000000 9.621934 7.231441 -1.114178 2.222426 1.037147 -0.807830 0.000000 0.000000 0.000000 2.235496 1.033575 -0.787906 2.645546 3.460685 -0.199705 0.000000 0.000000 0.000000 2.235496 1.033575 -0.787906 1.125278 3.798843 -8.856254 -52.285887 5.109670 -52.166065 -179.999745 -73.174979 -179.999732 0.000000 0.000000 0.000000 2.235496 1.033575 -0.787906 2.994922 13.960743 -5.866393 -47.791045 26.394192 81.130920 -179.999896 72.940430 179.999896 0.000000 0.000000 0.000000 
-2.508634 79.587494 1.770920 0.000000 0.000000 0.000000 -6.331440 -46.736044 -0.787646 -41.333726 0.565924 21.556367 68.096645 -7.231560 4.276246 -15.712087 -7.209482 -18.880759 0.000000 0.000000 0.000000 -6.331440 -46.736044 -0.787646 -23.805031 -8.449823 -33.147605 66.043783 -3.625344 -8.769913 -32.170608 -9.971187 26.943498 0.000000 0.000000 0.000000 -6.331440 -46.736044 -0.787646 0.000000 -0.000002 0.000000 9.773121 7.128834 -0.796470 2.257128 1.009189 -0.750955 0.000000 0.000000 0.000000 2.269902 1.007365 -0.731401 2.648148 3.458923 -0.243888 0.000000 0.000000 0.000000 2.269902 1.007365 -0.731401 1.163462 3.821058 -8.986287 -51.810700 5.177648 -52.410097 179.999677 -73.065587 179.999704 0.000000 0.000000 0.000000 2.269902 1.007365 -0.731401 2.943687 14.300186 -6.058948 -47.450598 26.165217 80.055165 -179.999841 72.262363 179.999868 0.000000 0.000000 0.000000 
-2.296048 79.168785 1.905903 0.000000 0.000000 0.000000 -6.881788 -47.292472 -1.250147 -43.296344 -0.719784 21.704400 70.620591 -7.154031 4.047357 -12.433238 -8.059166 -19.226144 0.000000 0.000000 0.000000 -6.881788 -47.292472 -1.250147 -24.581907 -8.280183 -33.612058 66.980264 -2.409294 -9.455965 -32.464924 -10.044621 27.051669 0.000000 0.000000 0.000000 -6.881788 -47.292472 -1.250147 0.000000 0.000005 0.000000 10.004623 6.925035 -0.373985 2.308898 0.953292 -0.674974 0.000000 0.000000 0.000000 2.321655 0.953442 -0.655524 2.640638 3.453460 -0.287946 0.000000 0.000000 0.000000 2.321655 0.953442 -0.655524 1.234246 3.772993 -9.161642 -51.384852 5.170399 -52.573537 179.999841 -72.884955 179.999855 0.000000 0.000000 0.000000 2.321655 0.953442 -0.655524 2.852592 14.410079 -6.345796 -47.309889 25.994132 79.222681 -179.999868 71.582029 179.999855 0.000000 0.000000 0.000000 
-1.973227 78.637466 2.279324 0.000000 0.000000 0.000000 -7.534808 -47.831125 -1.850204 -45.313278 -2.333376 22.349868 73.024769 -7.626493 3.713771 -8.780158 -9.314810 -20.881978 0.000000 0.000000 0.000000 -7.534808 -47.831125 -1.850204 -25.219480 -7.890931 -34.472497 68.004095 -0.991279 -9.710786 -32.758386 -9.988505 27.072315 0.000000 0.000000 0.000000 -7.534808 -47.831125 -1.850204 0.000000 -0.000001 0.000000 10.292814 6.703793 0.145816 2.371355 0.890403 -0.581112 0.000000 0.000000 0.000000 2.384084 0.893105 -0.561744 2.645754 3.445769 -0.344311 0.000000 0.000000 0.000000 2.384084 0.893105 -0.561744 1.334708 3.639694 -9.362892 -51.060244 5.134137 -52.617226 -179.999786 -72.790644 -179.999800 0.000000 0.000000 0.000000 2.384084 0.893105 -0.561744 2.758137 14.518088 -6.511338 -47.260545 25.787562 78.332680 -179.999814 70.883321 179.999814 0.000000 0.000000 0.000000 
-1.609596 78.077614 2.858421 0.000000 0.000000 0.000000 -8.201423 -48.498817 -2.492135 -47.139182 -4.010460 23.229321 74.833424 -8.283229 3.409229 -4.849700 -11.505747 -23.022613 0.000000 0.000000 0.000000 -8.201423 -48.498817 -2.492135 -25.876411 -7.301953 -35.565335 69.011186 0.443678 -9.723904 -32.982458 -9.677951 26.900903 0.000000 0.000000 0.000000 -8.201423 -48.498817 -2.492135 -0.000000 0.000001 0.000001 10.557910 6.559954 0.672419 2.429082 0.845221 -0.481174 0.000000 0.000000 0.000000 2.441856 0.850233 -0.462065 2.665628 3.441848 -0.405101 0.000000 0.000000 0.000000 2.441856 0.850233 -0.462065 1.471502 3.437387 -9.623567 -50.879541 5.105812 -52.547039 -179.999800 -72.823894 -179.999800 0.000000 0.000000 0.000000 2.441856 0.850233 -0.462065 2.700742 14.876133 -6.457029 -47.075709 25.555018 77.105070 179.999909 70.030093 -179.999909 0.000000 0.000000 0.000000 
-1.289710 77.676857 3.549244 0.000000 0.000000 0.000000 -8.763772 -49.351289 -3.033731 -48.885289 -4.913011 23.450278 77.038038 -7.910010 3.270345 -3.110068 -15.241869 -22.026984 0.000000 0.000000 0.000000 -8.763772 -49.351289 -3.033731 -26.601428 -6.660514 -36.680383 69.551789 1.071033 -9.748323 -32.834826 -8.544445 27.025662 0.000000 0.000000 0.000000 -8.763772 -49.351289 -3.033731 -0.000000 0.000001 0.000001 10.769940 6.372074 1.026936 2.478319 0.790672 -0.407231 0.000000 0.000000 0.000000 2.491808 0.796764 -0.387781 2.670471 3.452451 -0.441599 0.000000 0.000000 0.000000 2.491808 0.796764 -0.387781 1.550702 3.325901 -9.781937 -50.704145 4.857861 -52.443524 -179.999896 -72.921176 -179.999896 0.000000 0.000000 0.000000 2.491808 0.796764 -0.387781 2.582665 14.869339 -6.405091 -46.899029 25.633760 76.326695 -179.999814 69.309447 179.999827 0.000000 0.000000 0.000000 
-0.997738 77.494278 4.273335 0.000000 0.000000 0.000000 -9.111389 -50.298281 -3.445819 -49.860412 -5.290651 23.740836 78.948777 -7.302996 3.291020 -3.213098 -17.692003 -20.024844 0.000000 0.000000 0.000000 -9.111389 -50.298281 -3.445819 -27.386514 -5.904717 -37.804370 69.393356 1.495552 -9.741445 -31.820820 -6.767780 27.795648 0.000000 0.000000 0.000000 -9.111389 -50.298281 -3.445819 0.000000 0.000000 0.000000 10.863320 5.978772 1.233519 2.508651 0.685997 -0.349991 0.000000 0.000000 0.000000 2.524227 0.691362 -0.329055 2.664030 3.493117 -0.482351 0.000000 0.000000 0.000000 2.524227 0.691362 -0.329055 1.585090 3.209524 -9.800771 -50.718864 4.926947 -51.994170 179.999745 -72.895276 179.999759 0.000000 0.000000 0.000000 2.524227 0.691362 -0.329055 2.431040 14.638714 -6.354239 -46.679558 26.103771 75.840098 179.999786 68.752117 -179.999800 0.000000 0.000000 0.000000 
-0.718728 77.745476 4.830219 0.000000 0.000000 0.000000 -9.284478 -51.206806 -3.695274 -48.458864 -4.456394 24.752906 80.441016 -6.826969 3.247810 -7.159555 -13.600863 -17.593242 0.000000 0.000000 0.000000 -9.284478 -51.206806 -3.695274 -28.044192 -5.493119 -38.478783 68.374039 1.701972 -9.768620 -30.242493 -5.060079 28.304427 0.000000 0.000000 0.000000 -9.284478 -51.206806 -3.695274 0.000000 -0.000002 0.000000 10.940577 5.309458 1.114301 2.543762 0.513597 -0.338696 0.000000 0.000000 0.000000 2.563177 0.515197 -0.314908 2.619545 3.576578 -0.508969 0.000000 0.000000 0.000000 2.563177 0.515197 -0.314908 1.596921 2.959878 -9.644786 -51.434121 5.961459 -50.878438 180.000005 -72.744568 179.999991 0.000000 0.000000 0.000000 2.563177 0.515197 -0.314908 2.251867 14.238632 -6.103018 -46.179343 26.953690 75.120961 179.999841 68.198933 -179.999841 0.000000 0.000000 0.000000 
-0.499792 78.229874 5.492943 0.000000 0.000000 0.000000 -9.333729 -51.825351 -3.986977 -45.084576 -2.558743 27.007051 80.063546 -4.568865 1.818227 -13.352549 -8.274255 -14.794536 0.000000 0.000000 0.000000 -9.333729 -51.825351 -3.986977 -28.232059 -5.364679 -38.682544 66.822070 1.935411 -9.809496 -28.103761 -3.826698 28.524048 0.000000 0.000000 0.000000 -9.333729 -51.825351 -3.986977 0.000000 -0.000003 0.000000 10.938504 4.226026 0.740046 2.560897 0.232281 -0.377450 0.000000 0.000000 0.000000 2.584835 0.227284 -0.349427 2.552277 3.712252 -0.497188 0.000000 0.000000 0.000000 2.584835 0.227284 -0.349427 1.531562 2.675002 -9.216911 -52.767019 7.400105 -49.067150 -179.999855 -72.585281 -179.999855 0.000000 0.000000 0.000000 2.584835 0.227284 -0.349427 2.028423 13.514272 -5.642678 -45.161115 28.122344 73.713225 179.999950 67.692625 -179.999964 0.000000 0.000000 0.000000 
-0.394069 78.556992 6.590080 0.000000 0.000000 0.000000 -9.139224 -51.686753 -4.733545 -42.109113 -0.997339 30.596970 78.383292 0.332386 -1.378835 -18.561717 -7.684018 -12.356781 0.000000 0.000000 0.000000 -9.139224 -51.686753 -4.733545 -27.523840 -5.648773 -38.237629 65.050619 2.414033 -9.842718 -25.432325 -3.426614 28.661072 0.000000 0.000000 0.000000 -9.139224 -51.686753 -4.733545 0.000000 0.000005 0.000000 10.582103 2.589922 0.667972 2.497046 -0.196634 -0.360812 0.000000 0.000000 0.000000 2.524404 -0.208976 -0.327258 2.471745 3.899956 -0.447471 0.000000 0.000000 0.000000 2.524404 -0.208976 -0.327258 1.345471 2.564980 -8.543916 -54.228372 8.985004 -46.918055 179.999909 -72.378722 179.999896 0.000000 0.000000 0.000000 2.524404 -0.208976 -0.327258 1.719712 12.122009 -4.893698 -43.464438 29.960437 71.182988 -179.999882 67.324874 179.999882 0.000000 0.000000 0.000000 
